HIERARCHY
ROOT Hips
{
  OFFSET 0.0273292 -0.436096 0.279869
  CHANNELS 6 Xposition Yposition Zposition Zrotation Xrotation Yrotation
  JOINT LHipJoint
  {
    OFFSET 0 0 0
    CHANNELS 6 Xposition Yposition Zposition Zrotation Xrotation Yrotation
    JOINT LeftUpLeg
    {
      OFFSET 1.36306 -1.79463 0
      CHANNELS 6 Xposition Yposition Zposition Zrotation Xrotation Yrotation
      JOINT LeftLeg
      {
        OFFSET 2.44807 -6.72613 0.000295034
        CHANNELS 6 Xposition Yposition Zposition Zrotation Xrotation Yrotation
        JOINT LeftFoot
        {
          OFFSET 2.5622 -7.03959 3.59965e-05
          CHANNELS 6 Xposition Yposition Zposition Zrotation Xrotation Yrotation
          JOINT LeftToeBase
          {
            OFFSET 0.15764 -0.43311 2.32255
            CHANNELS 6 Xposition Yposition Zposition Zrotation Xrotation Yrotation
            End Site
            {
              OFFSET 0 0 0
            }
          }
        }
      }
    }
  }
  JOINT RHipJoint
  {
    OFFSET 0 0 0
    CHANNELS 6 Xposition Yposition Zposition Zrotation Xrotation Yrotation
    JOINT RightUpLeg
    {
      OFFSET -1.30552 -1.79463 0
      CHANNELS 6 Xposition Yposition Zposition Zrotation Xrotation Yrotation
      JOINT RightLeg
      {
        OFFSET -2.54234 -6.98562 -0.000396375
        CHANNELS 6 Xposition Yposition Zposition Zrotation Xrotation Yrotation
        JOINT RightFoot
        {
          OFFSET -2.56826 -7.05623 -4.47982e-05
          CHANNELS 6 Xposition Yposition Zposition Zrotation Xrotation Yrotation
          JOINT RightToeBase
          {
            OFFSET -0.16473 -0.45259 2.36315
            CHANNELS 6 Xposition Yposition Zposition Zrotation Xrotation Yrotation
            End Site
            {
              OFFSET 0 0 0
            }
          }
        }
      }
    }
  }
  JOINT LowerBack
  {
    OFFSET 0 0 0
    CHANNELS 6 Xposition Yposition Zposition Zrotation Xrotation Yrotation
    JOINT Spine
    {
      OFFSET 0.0282699 2.03559 0
      CHANNELS 6 Xposition Yposition Zposition Zrotation Xrotation Yrotation
      JOINT Spine1
      {
        OFFSET 0.05672 2.04885 -0.04275
        CHANNELS 6 Xposition Yposition Zposition Zrotation Xrotation Yrotation
        JOINT Neck
        {
          OFFSET 0 0 0
          CHANNELS 6 Xposition Yposition Zposition Zrotation Xrotation Yrotation
          JOINT Neck1
          {
            OFFSET -0.05417 1.74624 0.17202
            CHANNELS 6 Xposition Yposition Zposition Zrotation Xrotation Yrotation
            JOINT Head
            {
              OFFSET 0.10407 1.76136 -0.12397
              CHANNELS 6 Xposition Yposition Zposition Zrotation Xrotation Yrotation
              End Site
              {
                OFFSET 0 0 0
              }
            }
          }
        }
        JOINT LeftShoulder
        {
          OFFSET 0 0 0
          CHANNELS 6 Xposition Yposition Zposition Zrotation Xrotation Yrotation
          JOINT LeftArm
          {
            OFFSET 3.36241 1.20089 -0.311211
            CHANNELS 6 Xposition Yposition Zposition Zrotation Xrotation Yrotation
            JOINT LeftForeArm
            {
              OFFSET 4.983 0.000197398 0.000166057
              CHANNELS 6 Xposition Yposition Zposition Zrotation Xrotation Yrotation
              JOINT LeftHand
              {
                OFFSET 3.48356 0 1.87849e-05
                CHANNELS 6 Xposition Yposition Zposition Zrotation Xrotation Yrotation
                JOINT LeftFingerBase
                {
                  OFFSET 0 0 0
                  CHANNELS 6 Xposition Yposition Zposition Zrotation Xrotation Yrotation
                  JOINT LeftHandIndex1
                  {
                    OFFSET 0.71526 0 0
                    CHANNELS 6 Xposition Yposition Zposition Zrotation Xrotation Yrotation
                    End Site
                    {
                      OFFSET 0 0 0
                    }
                  }
                }
                JOINT LThumb
                {
                  OFFSET 0 0 0
                  CHANNELS 6 Xposition Yposition Zposition Zrotation Xrotation Yrotation
                  End Site
                  {
                    OFFSET 0 0 0
                  }
                }
              }
            }
          }
        }
        JOINT RightShoulder
        {
          OFFSET 0 0 0
          CHANNELS 6 Xposition Yposition Zposition Zrotation Xrotation Yrotation
          JOINT RightArm
          {
            OFFSET -3.1366 1.37405 -0.404651
            CHANNELS 6 Xposition Yposition Zposition Zrotation Xrotation Yrotation
            JOINT RightForeArm
            {
              OFFSET -5.2419 -5.8808e-05 -0.000165864
              CHANNELS 6 Xposition Yposition Zposition Zrotation Xrotation Yrotation
              JOINT RightHand
              {
                OFFSET -3.44417 0 -2.00002e-05
                CHANNELS 6 Xposition Yposition Zposition Zrotation Xrotation Yrotation
                JOINT RightFingerBase
                {
                  OFFSET 0 0 0
                  CHANNELS 6 Xposition Yposition Zposition Zrotation Xrotation Yrotation
                  JOINT RightHandIndex1
                  {
                    OFFSET -0.62253 0 0
                    CHANNELS 6 Xposition Yposition Zposition Zrotation Xrotation Yrotation
                    End Site
                    {
                      OFFSET 0 0 0
                    }
                  }
                }
                JOINT RThumb
                {
                  OFFSET 0 0 0
                  CHANNELS 6 Xposition Yposition Zposition Zrotation Xrotation Yrotation
                  End Site
                  {
                    OFFSET 0 0 0
                  }
                }
              }
            }
          }
        }
      }
    }
  }
}
MOTION
Frames:	4
Frame Time:	0.00833333
-0.0652029 1.97958 0.0645202 0.944096 1.97194 1.88269 0 0 0 -3.60297e-16 0 3.97569e-16 1.36306 -1.79463 3.09372e-08 -18.1003 -29.8693 0.220793 2.44808 -6.72613 0.000301759 -15.3052 52.0901 24.45 2.56219 -7.0396 4.00639e-06 -1.94297 1.41336 0.48623 0.15764 -0.43311 2.32255 -3.18055e-15 0 3.18055e-15 0 0 0 -3.60297e-16 0 3.97569e-16 -1.30552 -1.79463 -1.97039e-08 20.9915 -15.6154 -1.57123 -2.53985 -6.98649 0.0242247 -1.79257 25.0889 -5.26945 -2.56826 -7.05623 4.98452e-05 0.666666 -13.7902 5.02472 -0.16473 -0.45259 2.36315 5.85794e-15 -3.97569e-16 -3.97569e-16 0 0 0 -3.60297e-16 0 3.97569e-16 0.0282699 2.03559 2.83892e-08 -1.06067 6.17342 -1.2626 0.05672 2.04885 -0.04275 -4.96962e-17 1.59028e-15 -9.93923e-17 0 0 0 4.96962e-17 0 9.93923e-17 -0.05417 1.74624 0.17202 1.83034 -7.26364 -2.1136 0.10407 1.76136 -0.12397 -2.29845e-16 1.98785e-16 -1.98785e-16 0 0 0 4.96962e-17 0 9.93923e-17 3.36241 1.20089 -0.31121 -73.9349 40.8443 -11.5431 4.983 0.000257437 5.75405e-05 0.754745 -1.11677 -17.4246 3.48356 4.68606e-06 -1.0925e-05 7.05502e-05 3.18055e-15 0.000201401 0 0 0 -3.18055e-15 6.36111e-15 3.18055e-15 0.71526 4.44089e-16 0 1.59028e-15 3.18055e-15 3.18055e-15 0 0 0 -3.18055e-15 6.36111e-15 3.18055e-15 0 0 0 4.96962e-17 0 9.93923e-17 -3.1366 1.37405 -0.404649 69.5061 25.3747 19.6423 -5.2419 0.000239583 6.8214e-05 -0.521548 -0.830237 30.0632 -3.44417 6.01683e-06 -2.48477e-05 -9.8674e-05 -6.36111e-15 -0.000423367 0 0 0 -3.18055e-15 -6.36111e-15 -9.54166e-15 -0.62253 0 0 -3.18055e-15 0 -0 0 0 0 -3.18055e-15 -6.36111e-15 -9.54166e-15 
-0.053204 1.99189 0.0458897 0.92999 2.4874 1.75138 0 0 0 8.69683e-17 -3.97569e-16 -1.98785e-16 1.36306 -1.79463 3.09372e-08 -19.1715 -29.8685 -0.447431 2.44808 -6.72613 0.000301759 -13.7496 49.6736 22.5787 2.56219 -7.0396 4.00639e-06 -2.22193 1.33324 0.551744 0.15764 -0.43311 2.32255 2.38542e-15 -3.18055e-15 -0 0 0 0 8.69683e-17 -3.97569e-16 -1.98785e-16 -1.30552 -1.79463 -1.97039e-08 21.1915 -14.8459 -2.03703 -2.53985 -6.98649 0.0242247 -2.46736 24.2718 -3.66904 -2.56826 -7.05623 4.98452e-05 0.715118 -14.2712 5.13588 -0.16473 -0.45259 2.36315 2.4786e-15 0 -4.96962e-17 0 0 0 8.69683e-17 -3.97569e-16 -1.98785e-16 0.0282699 2.03559 2.83892e-08 -1.07056 6.10716 -1.12728 0.05672 2.04885 -0.04275 -7.45443e-17 3.18055e-15 1.98785e-16 0 0 0 1.2424e-17 3.18055e-15 1.98785e-16 -0.05417 1.74624 0.17202 1.64595 -7.68348 -1.99973 0.10407 1.76136 -0.12397 1.52195e-16 0 -1.98785e-16 0 0 0 1.2424e-17 3.18055e-15 1.98785e-16 3.36241 1.20089 -0.31121 -74.7582 40.1453 -10.4677 4.983 0.000257437 5.75405e-05 0.755775 -1.11886 -17.4495 3.48356 4.68606e-06 -1.0925e-05 -0.49777 -0.20028 0.106857 0 0 0 1.59028e-15 9.54166e-15 -0 0.71526 -4.44089e-16 -4.44089e-16 -2.64834e-31 9.54166e-15 1.59028e-15 0 0 0 1.59028e-15 9.54166e-15 -0 0 0 0 1.2424e-17 3.18055e-15 1.98785e-16 -3.1366 1.37405 -0.404649 66.8403 26.0717 22.5099 -5.2419 0.000239583 6.8214e-05 -0.50521 -0.760942 31.656 -3.44417 6.01683e-06 -2.48477e-05 0.393801 0.574713 0.277027 0 0 0 9.54166e-15 -6.36111e-15 -6.36111e-15 -0.62253 0 -4.44089e-16 6.36111e-15 -3.18055e-15 -0 0 0 0 9.54166e-15 -6.36111e-15 -6.36111e-15 
-0.0412607 2.01899 0.0016631 0.908323 2.7074 1.64122 0 0 0 -2.75869e-33 -7.95139e-16 -1.98785e-16 1.36306 -1.79463 3.09372e-08 -19.6824 -29.8661 -0.711913 2.44808 -6.72613 0.000301759 -10.7431 43.6599 18.8409 2.56219 -7.0396 4.00639e-06 -2.88813 1.157 0.572639 0.15764 -0.43311 2.32255 -6.36111e-15 -3.18055e-15 3.18055e-15 0 0 0 -2.75869e-33 -7.95139e-16 -1.98785e-16 -1.30552 -1.79463 -1.97039e-08 21.1177 -13.0484 -3.15095 -2.53985 -6.98649 0.0242247 -3.0397 22.3965 -2.09022 -2.56826 -7.05623 4.98452e-05 0.708909 -14.8302 5.1987 -0.16473 -0.45259 2.36315 5.44328e-16 0 -1.86361e-16 0 0 0 -2.75869e-33 -7.95139e-16 -1.98785e-16 0.0282699 2.03559 2.83892e-08 -1.06711 5.94434 -0.78828 0.05672 2.04885 -0.04275 2.48481e-17 -3.18055e-15 -1.98785e-16 0 0 0 2.48481e-17 -1.59028e-15 -0 -0.05417 1.74624 0.17202 1.22532 -7.87362 -1.7263 0.10407 1.76136 -0.12397 6.21202e-17 -9.93923e-17 5.96354e-16 0 0 0 2.48481e-17 -1.59028e-15 -0 3.36241 1.20089 -0.31121 -76.6428 38.3997 -7.96238 4.983 0.000257437 5.75405e-05 0.758033 -1.12347 -17.5043 3.48356 4.68606e-06 -1.0925e-05 -1.66791 -0.686573 0.377869 0 0 0 -7.95139e-16 3.18055e-15 4.77083e-15 0.71526 4.44089e-16 4.44089e-16 0 0 -0 0 0 0 -7.95139e-16 3.18055e-15 4.77083e-15 0 0 0 2.48481e-17 -1.59028e-15 -0 -3.1366 1.37405 -0.404649 65.1606 26.9276 23.821 -5.2419 0.000239583 6.8214e-05 -0.486673 -0.726386 33.14 -3.44417 6.01683e-06 -2.48477e-05 1.30362 1.86768 0.926065 0 0 0 -1.05934e-30 9.54166e-15 6.36111e-15 -0.62253 0 0 3.18055e-15 3.18055e-15 -6.36111e-15 0 0 0 -1.05934e-30 9.54166e-15 6.36111e-15 
-0.0274771 2.04609 -0.0506627 0.85805 2.7995 1.49656 0 0 0 -8.69683e-17 0 -0 1.36306 -1.79463 3.09372e-08 -19.8801 -29.862 -0.828469 2.44808 -6.72613 0.000301759 -8.0531 36.0403 15.3317 2.56219 -7.0396 4.00639e-06 -3.69307 0.980771 0.583412 0.15764 -0.43311 2.32255 -1.19271e-15 -1.59028e-15 -0 0 0 0 -8.69683e-17 0 -0 -1.30552 -1.79463 -1.97039e-08 21.0225 -10.9921 -4.49717 -2.53985 -6.98649 0.0242247 -3.32598 20.5016 -0.910438 -2.56826 -7.05623 4.98452e-05 0.658537 -15.4365 5.32562 -0.16473 -0.45259 2.36315 -8.68751e-15 0 -4.96962e-17 0 0 0 -8.69683e-17 0 -0 0.0282699 2.03559 2.83892e-08 -1.00083 5.73894 -0.346011 0.05672 2.04885 -0.04275 -5.51738e-33 1.59028e-15 1.98785e-16 0 0 0 7.45443e-17 3.18055e-15 -0 -0.05417 1.74624 0.17202 0.70066 -7.95087 -1.40419 0.10407 1.76136 -0.12397 -2.87306e-17 -9.93923e-17 9.93923e-17 0 0 0 7.45443e-17 3.18055e-15 -0 3.36241 1.20089 -0.31121 -78.7706 36.1649 -5.06272 4.983 0.000257437 5.75405e-05 0.760282 -1.12807 -17.5591 3.48356 4.68606e-06 -1.0925e-05 -3.02566 -1.28702 0.739877 0 0 0 -1.59028e-15 -3.18055e-15 -1.59028e-15 0.71526 -4.44089e-16 -4.44089e-16 -1.59028e-15 0 -0 0 0 0 -1.59028e-15 -3.18055e-15 -1.59028e-15 0 0 0 7.45443e-17 3.18055e-15 -0 -3.1366 1.37405 -0.404649 63.8018 27.8359 24.5244 -5.2419 0.000239583 6.8214e-05 -0.467018 -0.705306 34.5193 -3.44417 6.01683e-06 -2.48477e-05 2.33807 3.2318 1.67229 0 0 0 -3.18055e-15 3.18055e-15 -6.36111e-15 -0.62253 0 2.22045e-16 -3.18055e-15 -3.18055e-15 6.36111e-15 0 0 0 -3.18055e-15 3.18055e-15 -6.36111e-15 
